<svg width="20" height="16" viewBox="0 0 20 16" fill="none" xmlns="http://www.w3.org/2000/svg">
<path fill-rule="evenodd" clip-rule="evenodd" d="M0.260584 1.32442C0.260584 0.726119 0.745603 0.241089 1.34392 0.241089H18.6667C19.265 0.241089 19.75 0.726119 19.75 1.32442V13.5923C19.75 14.789 18.78 15.759 17.5833 15.759H2.41667C1.22005 15.759 0.25 14.789 0.25 13.5923V1.67566C0.25 1.62407 0.253608 1.57333 0.260584 1.52366V1.32442ZM2.41667 3.73349V13.5923H17.5833V3.73386L12.2983 9.01892C11.0291 10.2881 8.97127 10.2881 7.70209 9.01892L2.41667 3.73349ZM4.12001 2.37271H15.8803L10.7662 7.48687C10.3432 7.90991 9.65723 7.90991 9.23419 7.48687L4.12001 2.37271Z" fill="#FF7800"/>
</svg>
