<svg width="28" height="42" viewBox="0 0 28 42" fill="none" xmlns="http://www.w3.org/2000/svg">
<path d="M14.0248 0C18.3027 0 22.3593 1.9916 25.0423 5.49219C23.501 4.66678 21.8257 4.1546 20.1178 3.96584C17.5459 3.68221 14.8897 4.13623 12.4973 5.36669C9.17067 7.07669 6.09196 10.3855 6.09196 14.4278C6.09196 18.9344 9.64379 22.5871 14.0248 22.5871C17.3108 22.5871 20.1306 20.5322 21.3338 17.603C22.5885 14.5493 21.915 10.9987 19.6367 8.65507C18.997 7.99699 18.258 7.46236 17.4576 7.06853C23.2173 6.43289 28.8728 10.012 27.8879 16.6317C27.509 19.1752 26.4845 21.4994 24.9907 23.4237L24.8578 23.592L24.83 23.6277L24.8043 23.6584L24.6892 23.7991L24.6842 23.8053C23.8759 24.7756 22.9455 25.6357 21.916 26.358C19.719 27.8956 17.1531 28.7496 14.5297 28.8485L14.5019 28.8475C14.3442 28.8536 14.1845 28.8567 14.0258 28.8567C12.9367 28.8567 11.8774 28.7281 10.8588 28.4874L10.8538 28.4853L10.5682 28.4139L10.4254 28.3751L10.2627 28.3292L10.0971 28.2813L9.9582 28.2384L9.78761 28.1833L9.65966 28.1415L9.47021 28.0772L9.40773 28.0548L9.1677 27.967L8.88204 27.8548L8.59738 27.7354L8.33355 27.6181L8.31173 27.6068L8.07666 27.4967L8.01715 27.4681L7.83068 27.3742C3.19178 25.0204 0 20.1067 0 14.4278C0 6.45942 6.27942 0 14.0248 0Z" fill="white"/>
<path d="M14.4513 42C19.6635 42 23.8878 37.6557 23.8878 32.2941H17.8038C17.8038 34.1989 16.3041 35.7426 14.4513 35.7426C12.5995 35.7426 11.0988 34.1989 11.0988 32.2941H9.37897H5.01581C5.01581 37.6546 9.24011 42 14.4513 42Z" fill="white"/>
</svg>
