<svg width="16" height="12" viewBox="0 0 16 12" fill="none" xmlns="http://www.w3.org/2000/svg">
<path fill-rule="evenodd" clip-rule="evenodd" d="M0.666656 2C0.666656 0.895433 1.56209 0 2.66666 0H13.3333C14.4379 0 15.3333 0.895433 15.3333 2V10C15.3333 11.1046 14.4379 12 13.3333 12H2.66666C1.56209 12 0.666656 11.1046 0.666656 10V2ZM2.66666 1.33333H13.3333C13.7015 1.33333 14 1.63181 14 2V10C14 10.3682 13.7015 10.6667 13.3333 10.6667H2.66666C2.29847 10.6667 1.99999 10.3682 1.99999 10V2C1.99999 1.63181 2.29847 1.33333 2.66666 1.33333ZM3.99999 2.66667C3.6318 2.66667 3.33332 2.96515 3.33332 3.33333C3.33332 3.70152 3.6318 4 3.99999 4C4.36818 4 4.66666 3.70152 4.66666 3.33333C4.66666 2.96515 4.36818 2.66667 3.99999 2.66667ZM11.3333 3.33333C11.3333 2.96515 11.6318 2.66667 12 2.66667C12.3682 2.66667 12.6667 2.96515 12.6667 3.33333C12.6667 3.70152 12.3682 4 12 4C11.6318 4 11.3333 3.70152 11.3333 3.33333ZM3.33332 6C3.33332 5.6318 3.6318 5.33333 3.99999 5.33333C4.36818 5.33333 4.66666 5.6318 4.66666 6C4.66666 6.3682 4.36818 6.66667 3.99999 6.66667C3.6318 6.66667 3.33332 6.3682 3.33332 6ZM11.3333 6C11.3333 5.6318 11.6318 5.33333 12 5.33333C12.3682 5.33333 12.6667 5.6318 12.6667 6C12.6667 6.3682 12.3682 6.66667 12 6.66667C11.6318 6.66667 11.3333 6.3682 11.3333 6ZM3.33332 8.66667C3.33332 8.29847 3.6318 8 3.99999 8C4.36818 8 4.66666 8.29847 4.66666 8.66667C4.66666 9.03487 4.36818 9.33333 3.99999 9.33333C3.6318 9.33333 3.33332 9.03487 3.33332 8.66667ZM11.3333 8.66667C11.3333 8.29847 11.6318 8 12 8C12.3682 8 12.6667 8.29847 12.6667 8.66667C12.6667 9.03487 12.3682 9.33333 12 9.33333C11.6318 9.33333 11.3333 9.03487 11.3333 8.66667Z" fill="#767278"/>
</svg>
