<svg width="26" height="18" viewBox="0 0 26 18" fill="none" xmlns="http://www.w3.org/2000/svg">
<path d="M5.77458e-07 1.29212C6.07269e-07 0.951132 0.135609 0.624104 0.376996 0.382986C0.618382 0.141868 0.945773 0.00641034 1.28715 0.00641037L11.5843 0.00641127C11.7633 -0.0115334 11.944 0.00819181 12.1149 0.0643127C12.2858 0.120434 12.443 0.211703 12.5764 0.332239C12.7097 0.452775 12.8164 0.599901 12.8893 0.764125C12.9623 0.928348 13 1.10603 13 1.2857C13 1.46537 12.9623 1.64305 12.8893 1.80727C12.8164 1.97149 12.7097 2.11862 12.5764 2.23915C12.443 2.35969 12.2858 2.45096 12.1149 2.50708C11.944 2.5632 11.7633 2.58293 11.5843 2.56498L1.28715 2.56498C0.947992 2.565 0.622537 2.43131 0.381518 2.19296C0.140498 1.95462 0.00339208 1.63088 5.77458e-07 1.29212Z" fill="#2D405A"/>
<path d="M1.24901e-06 9.00642C1.27882e-06 8.66542 0.136284 8.3384 0.37887 8.09728C0.621455 7.85616 0.950473 7.7207 1.29354 7.7207L24.5773 7.7207C24.7571 7.70276 24.9388 7.72248 25.1105 7.77861C25.2822 7.83473 25.4402 7.926 25.5743 8.04653C25.7083 8.16707 25.8155 8.31419 25.8888 8.47842C25.9621 8.64264 26 8.82032 26 8.99999C26 9.17966 25.9621 9.35734 25.8888 9.52156C25.8155 9.68579 25.7083 9.83291 25.5743 9.95345C25.4402 10.074 25.2822 10.1653 25.1105 10.2214C24.9388 10.2775 24.7571 10.2972 24.5773 10.2793L1.29354 10.2793C0.952703 10.2793 0.625631 10.1456 0.383414 9.90725C0.141197 9.66891 0.00340961 9.34518 1.24901e-06 9.00642Z" fill="#2D405A"/>
<path d="M1.42985 15.435C1.24909 15.4171 1.06653 15.4368 0.893952 15.4929C0.721374 15.549 0.562604 15.6403 0.427883 15.7608C0.293162 15.8814 0.185482 16.0285 0.111785 16.1927C0.0380876 16.3569 1.13338e-05 16.5346 1.13181e-05 16.7143C1.13024e-05 16.894 0.0380876 17.0716 0.111785 17.2359C0.185482 17.4001 0.293162 17.5472 0.427883 17.6677C0.562604 17.7883 0.721373 17.8795 0.893952 17.9357C1.06653 17.9918 1.24909 18.0115 1.42985 17.9936L17.0298 17.9936C17.3505 17.9617 17.6478 17.8132 17.8641 17.5768C18.0803 17.3404 18.2 17.033 18.2 16.7143C18.2 16.3955 18.0803 16.0881 17.8641 15.8517C17.6478 15.6154 17.3505 15.4668 17.0298 15.435L1.42985 15.435Z" fill="#2D405A"/>
</svg>
